<svg xmlns="http://www.w3.org/2000/svg" height="512" width="512"><g fill="none" fill-rule="evenodd"><path d="M415 41v4h-4v-4zm-4-4v4h-4v-4zm8 0v4h-4v-4zm-4-4v4h-4v-4zm-240 76v4h-4v-4zm-4-4v4h-4v-4zm8 0v4h-4v-4zm-4-4v4h-4v-4zm290 306v4h-4v-4zm-4-4v4h-4v-4zm8 0v4h-4v-4zm-4-4v4h-4v-4zm-168-69v4h-4v-4zm-4-4v4h-4v-4zm8 0v4h-4v-4zm-4-4v4h-4v-4zM56 278v4h-4v-4zm-4-4v4h-4v-4zm8 0v4h-4v-4zm-4-4v4h-4v-4z" fill="#452510"/><path d="M334 151h4v4h-4zM205 255h4v4h-4zm60 220h4v4h-4zM98 435h4v4h-4zM44 131h4v4h-4zm409 116h4v4h-4z" fill="#452510"/></g></svg>
