<svg xmlns="http://www.w3.org/2000/svg" viewBox="0 0 16 16" width="16" height="16" shape-rendering="crispEdges">
  <path d="M4 0H5V1H4Z" fill="#310800" fill-rule="evenodd"/>
  <path d="M13 11H12V6H13Z" fill="#310800" fill-rule="evenodd"/>
  <path d="M4 11H3V6H4Z" fill="#310800" fill-rule="evenodd"/>
  <path d="M4 13H6V14H4Z" fill="#310800" fill-rule="evenodd"/>
  <path d="M10 14V15H6V14Z" fill="#310800" fill-rule="evenodd"/>
  <path d="M12 11V12H4V11Z" fill="#310800" fill-rule="evenodd"/>
  <path d="M2 4H3V6H2Z" fill="#310800" fill-rule="evenodd"/>
  <path d="M13 4H14V6H13Z" fill="#310800" fill-rule="evenodd"/>
  <path d="M12 3H13V4H12Z" fill="#310800" fill-rule="evenodd"/>
  <path d="M3 3H4V4H3Z" fill="#310800" fill-rule="evenodd"/>
  <path d="M12 12H13V13H12Z" fill="#310800" fill-rule="evenodd"/>
  <path d="M3 12H4V13H3Z" fill="#310800" fill-rule="evenodd"/>
  <path d="M12 13V14H10V13Z" fill="#310800" fill-rule="evenodd"/>
  <path d="M12 1V0H13V3H12V2H9V1Z" fill="#9c2900" fill-rule="evenodd"/>
  <path d="M9 8V9H7V8Z" fill="#9c2900" fill-rule="evenodd"/>
  <path d="M6 5H7V6H6Z" fill="#9c2900" fill-rule="evenodd"/>
  <path d="M9 0V1H5V0Z" fill="#9c2900" fill-rule="evenodd"/>
  <path d="M9 5H10V6H9Z" fill="#9c2900" fill-rule="evenodd"/>
  <path d="M12 4H13V6H12Z" fill="#f65a08" fill-rule="evenodd"/>
  <path d="M9 0H10V1H9Z" fill="#f65a08" fill-rule="evenodd"/>
  <path d="M5 12H6V13H5Z" fill="#f65a08" fill-rule="evenodd"/>
  <path d="M3 4H4V6H3Z" fill="#f65a08" fill-rule="evenodd"/>
  <path d="M4 6H6V7H4Z" fill="#f65a08" fill-rule="evenodd"/>
  <path d="M9 13V14H7V13Z" fill="#f65a08" fill-rule="evenodd"/>
  <path d="M10 6H12V7H10Z" fill="#f65a08" fill-rule="evenodd"/>
  <path d="M7 5H9V6H7Z" fill="#f65a08" fill-rule="evenodd"/>
  <path d="M10 12H11V13H10Z" fill="#f65a08" fill-rule="evenodd"/>
  <path d="M10 0H11V1H10Z" fill="#bd3900" fill-rule="evenodd"/>
  <path d="M9 13H10V14H9Z" fill="#d54100" fill-rule="evenodd"/>
  <path d="M9 8H7V6H9Z" fill="#d54100" fill-rule="evenodd"/>
  <path d="M11 0H12V1H11Z" fill="#d54100" fill-rule="evenodd"/>
  <path d="M4 12H5V13H4Z" fill="#d54100" fill-rule="evenodd"/>
  <path d="M11 12H12V13H11Z" fill="#d54100" fill-rule="evenodd"/>
  <path d="M6 13H7V14H6Z" fill="#d54100" fill-rule="evenodd"/>
  <path d="M7 2V3H5V2Z" fill="#311800" fill-rule="evenodd"/>
  <path d="M3 1H5V2H3Z" fill="#311800" fill-rule="evenodd"/>
  <path d="M9 2H11V3H9Z" fill="#311800" fill-rule="evenodd"/>
  <path d="M9 3V4H7V3Z" fill="#311800" fill-rule="evenodd"/>
  <path d="M9 10H10V7H11V11H9Z" fill="#ffa431" fill-rule="evenodd"/>
  <path d="M9 1V3H7V2H5V1Z" fill="#ffa431" fill-rule="evenodd"/>
  <path d="M6 10H7V11H5V7H6Z" fill="#ffa431" fill-rule="evenodd"/>
  <path d="M5 14H6V16H5Z" fill="#5a2000" fill-rule="evenodd"/>
  <path d="M9 3H11V4H9Z" fill="#5a2000" fill-rule="evenodd"/>
  <path d="M11 14H12V16H11Z" fill="#5a2000" fill-rule="evenodd"/>
  <path d="M4 2H5V3H4Z" fill="#5a2000" fill-rule="evenodd"/>
  <path d="M9 15H10V16H9Z" fill="#5a2000" fill-rule="evenodd"/>
  <path d="M11 2H12V3H11Z" fill="#5a2000" fill-rule="evenodd"/>
  <path d="M5 3H7V4H5Z" fill="#5a2000" fill-rule="evenodd"/>
  <path d="M5 5H4V3H5Z" fill="#f6ffff" fill-rule="evenodd"/>
  <path d="M10 5H11V6H10Z" fill="#f6ffff" fill-rule="evenodd"/>
  <path d="M5 5H6V6H5Z" fill="#f6ffff" fill-rule="evenodd"/>
  <path d="M11 3H12V5H11Z" fill="#f6ffff" fill-rule="evenodd"/>
  <path d="M6 4H7V5H6Z" fill="#f6ffff" fill-rule="evenodd"/>
  <path d="M7 15H9V16H7Z" fill="#f6ffff" fill-rule="evenodd"/>
  <path d="M9 4H10V5H9Z" fill="#f6ffff" fill-rule="evenodd"/>
  <path d="M3 15H2V13H3Z" fill="#000000" fill-rule="evenodd"/>
  <path d="M14 15H13V13H14Z" fill="#000000" fill-rule="evenodd"/>
  <path d="M1 15H2V16H1Z" fill="#000000" fill-rule="evenodd"/>
  <path d="M10 4H11V5H10Z" fill="#000000" fill-rule="evenodd"/>
  <path d="M5 4H6V5H5Z" fill="#000000" fill-rule="evenodd"/>
  <path d="M14 15H15V16H14Z" fill="#000000" fill-rule="evenodd"/>
  <path d="M12 15H13V16H12Z" fill="#000000" fill-rule="evenodd"/>
  <path d="M3 15H4V16H3Z" fill="#000000" fill-rule="evenodd"/>
  <path d="M11 16H10V14H11Z" fill="#ffb418" fill-rule="evenodd"/>
  <path d="M7 4H9V5H7Z" fill="#ffb418" fill-rule="evenodd"/>
  <path d="M6 15H7V16H6Z" fill="#ffb418" fill-rule="evenodd"/>
  <path d="M4 5H5V6H4Z" fill="#ffbd62" fill-rule="evenodd"/>
  <path d="M11 5H12V6H11Z" fill="#ffbd62" fill-rule="evenodd"/>
  <path d="M9 6H10V9H9Z" fill="#5a0800" fill-rule="evenodd"/>
  <path d="M6 6H7V9H6Z" fill="#5a0800" fill-rule="evenodd"/>
  <path d="M7 9H9V10H7Z" fill="#5a0800" fill-rule="evenodd"/>
  <path d="M11 7H12V11H11Z" fill="#ff8b08" fill-rule="evenodd"/>
  <path d="M5 11H4V7H5Z" fill="#ff8b08" fill-rule="evenodd"/>
  <path d="M7 12H9V13H7Z" fill="#ff8b08" fill-rule="evenodd"/>
  <path d="M6 12H7V13H6Z" fill="#ff7b08" fill-rule="evenodd"/>
  <path d="M6 9H7V10H6Z" fill="#ff7b08" fill-rule="evenodd"/>
  <path d="M9 9H10V10H9Z" fill="#ff7b08" fill-rule="evenodd"/>
  <path d="M7 10H9V11H7Z" fill="#ff7b08" fill-rule="evenodd"/>
  <path d="M9 12H10V13H9Z" fill="#ff7b08" fill-rule="evenodd"/>
  <path d="M12 11H13V12H12Z" fill="#7b2910" fill-rule="evenodd"/>
  <path d="M3 11H4V12H3Z" fill="#7b2910" fill-rule="evenodd"/>
  <path d="M5 16H4V15H3V13H4V14H5Z" fill="#f6a418" fill-rule="evenodd"/>
  <path d="M12 13H13V15H12Z" fill="#f6a418" fill-rule="evenodd"/>
  <path d="M2 15H3V16H2Z" fill="#f6a418" fill-rule="evenodd"/>
  <path d="M13 15H14V16H13Z" fill="#f6a418" fill-rule="evenodd"/>
</svg>
